<svg width="118" height="49" viewBox="0 0 118 49" fill="none" xmlns="http://www.w3.org/2000/svg">
<path d="M23.5405 40.6689H18.9702L16.8608 36.6846H23.5405C25.103 36.6846 26.4116 37.2314 27.4663 38.3252C28.521 39.4189 29.0483 40.7471 29.0483 42.3096V47.9346H25.064V42.3096C25.064 41.8408 24.9272 41.4502 24.6538 41.1377C24.3804 40.8252 24.0093 40.6689 23.5405 40.6689ZM43.6968 40.083C43.6968 39.1455 44.0288 38.3447 44.6929 37.6807C45.3569 37.0166 46.1577 36.6846 47.0952 36.6846H55.1812L54.1265 38.6768H47.0952C46.7046 38.6768 46.3726 38.8135 46.0991 39.0869C45.8257 39.3604 45.689 39.6924 45.689 40.083C45.689 40.4736 45.8257 40.8057 46.0991 41.0791C46.3726 41.3525 46.7046 41.4893 47.0952 41.4893H53.4233C54.2827 41.4893 55.0444 41.8213 55.7085 42.4854C56.3726 43.1494 56.7046 43.9111 56.7046 44.7705C56.7046 45.6299 56.3726 46.3916 55.7085 47.0557C55.0444 47.7197 54.2827 48.0518 53.4233 48.0518H44.1655V46.0596H53.4233C53.7358 46.0596 54.0288 45.9229 54.3022 45.6494C54.5757 45.376 54.7124 45.083 54.7124 44.7705C54.7124 44.458 54.5757 44.165 54.3022 43.8916C54.0288 43.6182 53.7358 43.4814 53.4233 43.4814H47.0952C46.1577 43.4814 45.3569 43.1494 44.6929 42.4854C44.0288 41.8213 43.6968 41.0205 43.6968 40.083ZM58.228 42.1924C58.228 41.958 58.3062 41.7627 58.4624 41.6064C58.6187 41.4502 58.7749 41.3721 58.9312 41.3721H71.353L70.2983 43.3643H60.2202V46.0596H71.353V48.0518H59.2827L58.228 46.0596V42.1924ZM73.3452 36.6846H82.8374C83.853 36.6846 84.7319 37.0557 85.4741 37.7979C86.2163 38.54 86.5874 39.4189 86.5874 40.4346C86.5874 41.4502 86.2163 42.3291 85.4741 43.0713C84.7319 43.8135 83.853 44.1846 82.8374 44.1846H75.3374V48.0518L73.3452 46.9971V42.8955C73.3452 42.7393 73.4233 42.583 73.5796 42.4268C73.7358 42.2705 73.8921 42.1924 74.0483 42.1924H82.8374C83.3062 42.1924 83.7163 42.0166 84.0679 41.665C84.4194 41.3135 84.5952 40.9033 84.5952 40.4346C84.5952 39.9658 84.4194 39.5557 84.0679 39.2041C83.7163 38.8525 83.3062 38.6768 82.8374 38.6768H73.3452V36.6846ZM58.228 36.6846H71.2358L70.1812 38.6768H58.228V36.6846ZM0.806152 19.458V24.9658C0.806152 27.1533 1.5874 29.0283 3.1499 30.5908C4.7124 32.1533 6.5874 32.9346 8.7749 32.9346H37.603C38.7749 32.9346 39.8687 32.6807 40.8843 32.1729C41.8999 31.665 42.7983 31.0205 43.5796 30.2393C44.2827 31.0205 45.1421 31.665 46.1577 32.1729C47.1733 32.6807 48.2671 32.9346 49.439 32.9346H86.4702V28.9502H49.439C48.4233 28.9502 47.5249 28.5791 46.7437 27.8369C45.9624 27.0947 45.5718 26.1768 45.5718 25.083C45.5718 25.083 45.5718 25.0635 45.5718 25.0244C45.5718 24.9854 45.5718 24.9658 45.5718 24.9658V17.4658L41.5874 19.458V24.9658C41.5874 24.9658 41.5874 24.9854 41.5874 25.0244C41.5874 25.0635 41.5874 25.083 41.5874 25.083C41.5093 26.1768 41.0991 27.0947 40.3569 27.8369C39.6147 28.5791 38.6968 28.9502 37.603 28.9502H8.7749C7.68115 28.9502 6.74365 28.5596 5.9624 27.7783C5.18115 26.9971 4.79053 26.0596 4.79053 24.9658V17.4658L0.806152 19.458ZM81.4312 1.41113C81.5874 1.17676 81.7632 0.981445 81.9585 0.825195C82.1538 0.668945 82.3687 0.629883 82.603 0.708008L93.2671 0.942383C93.9702 1.02051 94.5562 1.29395 95.0249 1.7627C95.4937 2.23145 95.728 2.81738 95.728 3.52051V22.8564L78.2671 14.3018C77.7202 13.9893 77.3296 13.5205 77.0952 12.8955C76.8608 12.2705 76.8608 11.6455 77.0952 11.0205L81.4312 1.41113ZM113.306 31.9971C113.228 32.2314 113.091 32.4268 112.896 32.583C112.701 32.7393 112.447 32.8174 112.134 32.8174L101.587 32.4658C100.884 32.3877 100.298 32.1143 99.8296 31.6455C99.3608 31.1768 99.1265 30.5908 99.1265 29.8877L99.2437 10.5518L116.587 19.2236C117.134 19.458 117.525 19.9072 117.759 20.5713C117.994 21.2354 117.994 21.8408 117.759 22.3877L113.306 31.9971Z" fill="white"/>
</svg>
