<svg width="24" height="24" viewBox="0 0 24 24" fill="none" xmlns="http://www.w3.org/2000/svg">
<path fill-rule="evenodd" clip-rule="evenodd" d="M11.6084 0.594622L5.99411 3.81944L5.96274 3.83717C5.41795 4.15663 5.05238 4.74611 5.05238 5.42073V16.7787L8.08009 15.0398L8.0625 15.0003L8.06155 14.9975L8.0423 14.9519L8.02424 14.9069L8.02162 14.9003L8.00356 14.8542L7.98621 14.8079L7.98573 14.806L7.98525 14.8055L7.96814 14.7582L7.9515 14.7097L7.95103 14.7083L7.93486 14.6603L7.91894 14.6104L7.9187 14.6095L7.91823 14.6085L7.91395 14.5946L7.90967 14.5811C7.90278 14.5579 7.89588 14.5341 7.88923 14.5104L7.88875 14.5097L7.87497 14.4598L7.86142 14.409L7.86094 14.4073V14.4066L7.85381 14.378L7.84644 14.3496C7.83456 14.3014 7.82386 14.2527 7.81364 14.2037L7.8134 14.203L7.80318 14.1512L7.79391 14.1013V14.0999L7.79344 14.098V14.0968L7.78417 14.0455L7.77609 13.9942C7.76515 13.9228 7.75588 13.8519 7.74899 13.7816L7.74875 13.7795L7.74376 13.7284L7.73924 13.6741L7.73544 13.6199L7.73259 13.5684L7.73235 13.5665V13.5658L7.72974 13.5111L7.72807 13.4582V13.457L7.72712 13.4017L7.72665 13.3473L7.72712 13.2945L7.72807 13.242L7.72926 13.2066L7.72974 13.1964L7.73188 13.1368L7.73402 13.1004L7.73473 13.0924L7.7352 13.0862L7.73853 13.033L7.74733 12.9295L7.75255 12.8807L7.75897 12.8252L7.76491 12.7795L7.77276 12.7233L7.78013 12.6762L7.7894 12.6204L7.79748 12.5762L7.80817 12.5197L7.81721 12.4743C7.82244 12.4487 7.826 12.4329 7.82957 12.4175L7.83884 12.3771L7.8531 12.3192L7.86403 12.2761L7.87687 12.2288L7.88091 12.2137L7.88994 12.1811L7.89897 12.1503L7.90872 12.1189L7.92227 12.0744L7.93629 12.0302L7.95055 11.9872L7.95649 11.9704C7.96505 11.9458 7.97361 11.9214 7.98383 11.8933L7.99738 11.8576L7.99761 11.8566L7.99999 11.8503C8.00522 11.8368 8.01069 11.8219 8.01972 11.7989L8.03802 11.7538L8.05561 11.7107L8.08152 11.6512L8.09673 11.6166L8.11789 11.5703L8.13738 11.5284L8.16043 11.4811L8.18254 11.4374L8.20583 11.392L8.22675 11.3523L8.24006 11.3279L8.25289 11.304L8.27476 11.2655L8.27666 11.2619C8.28379 11.2494 8.29069 11.2369 8.3021 11.218L8.32373 11.1813L8.32397 11.1806L8.32801 11.1738L8.35201 11.1345L8.37436 11.0988L8.40668 11.0477L8.41476 11.0359L8.44186 10.9948L8.46967 10.9541C8.51697 10.8848 8.56641 10.8174 8.61728 10.7521L8.65174 10.7079L8.6748 10.68L8.69072 10.6602L8.71212 10.6342L8.73422 10.6081L8.75466 10.5843L8.77368 10.5623L8.7934 10.5403L8.82026 10.5103L8.84094 10.4876L8.86162 10.4651L8.88468 10.4405L8.90821 10.4157L8.93198 10.3911L8.94838 10.3745L8.97571 10.3469L9.00329 10.3197L9.01375 10.3095L9.04203 10.2823L9.07079 10.2553L9.08577 10.2414L9.11476 10.2144L9.14471 10.1875L9.1497 10.1832L9.18251 10.1539L9.21649 10.1248L9.22006 10.1217L9.22077 10.1213C9.24217 10.1028 9.26285 10.0856 9.28091 10.0709C9.29874 10.0563 9.31918 10.0399 9.342 10.0217C9.44777 9.93826 9.55687 9.85975 9.67001 9.78693L9.67453 9.78362L9.71232 9.75973L9.74988 9.73609L9.7551 9.73301L9.79218 9.71055L9.82879 9.68856L9.83996 9.68217L9.85018 9.67626L9.86064 9.67035C9.87894 9.65971 9.89629 9.64978 9.91174 9.64127L9.92387 9.63465L9.95904 9.61526L9.99494 9.5961L10.0113 9.58759L10.0484 9.56844L10.085 9.54976L10.091 9.54692L10.1326 9.52659L10.1737 9.50672L10.1751 9.50625C10.2112 9.48923 10.2478 9.47244 10.2847 9.45659C10.3199 9.44122 10.3572 9.42562 10.3964 9.41001C10.5887 9.33269 10.7876 9.26861 10.992 9.2199L10.9956 9.21895L11.0408 9.20831L11.0855 9.19838L11.0931 9.19673L11.1389 9.18727L11.1858 9.17828L11.1884 9.17781L11.2333 9.1693L11.2792 9.16149L11.2911 9.15937L11.3353 9.15227L11.3802 9.14589L11.3859 9.14471L11.4323 9.13856L11.4777 9.13265L11.4815 9.13217L11.5235 9.12673L11.5233 9.08465V4.53188C11.5233 4.45338 11.5395 4.39072 11.5658 4.34366C11.5887 4.30323 11.6193 4.2732 11.6552 4.25381C11.6916 4.23418 11.7334 4.22425 11.7774 4.22425C11.8349 4.22425 11.896 4.24104 11.9535 4.27273L18.9452 8.29322V5.42073C18.9452 4.76669 18.601 4.19209 18.0829 3.86673L12.3992 0.602662C12.2497 0.517537 12.1256 0.473083 12.0008 0.471191C11.998 0.471191 11.9951 0.471191 11.9923 0.471191C11.8701 0.471191 11.75 0.512099 11.6084 0.594622ZM12.4781 9.11184L12.5214 9.11657L12.5244 9.11704L12.5734 9.12342L12.6219 9.13004L12.6288 9.13146L12.678 9.13879L12.7272 9.14683L12.7289 9.14731L12.7795 9.15629L12.8299 9.16599L12.8313 9.16622L12.8812 9.17663L12.9323 9.1875L12.9345 9.18821L12.9487 9.19152L12.9625 9.1946C12.9865 9.20004 13.0105 9.20619 13.0345 9.2121H13.0352L13.0859 9.2251L13.1367 9.23882L13.1384 9.23929L13.1389 9.23976L13.1676 9.24756L13.1957 9.2556C13.2435 9.26979 13.2915 9.28469 13.339 9.30029L13.3404 9.30077L13.3901 9.31756L13.4384 9.33458L13.4396 9.33505L13.4415 9.336L13.4424 9.33624L13.4916 9.35421L13.5403 9.37265L13.5408 9.37289C13.6086 9.39913 13.6744 9.4268 13.7388 9.45541L13.7409 9.45612L13.788 9.47787L13.8375 9.50105L13.8864 9.52493L13.9328 9.5481L13.9347 9.54881L13.9354 9.54928L13.9841 9.57435L14.0309 9.59965L14.0319 9.60012L14.0808 9.62684L14.1284 9.65356L14.1738 9.68028L14.2192 9.70748L14.2582 9.73159L14.3088 9.76375L14.3397 9.78362L14.3461 9.78787L14.3509 9.79142L14.3573 9.79544L14.3958 9.82098L14.4352 9.84793L14.4816 9.88033L14.5215 9.90917L14.5667 9.94275L14.6033 9.97042L14.6485 10.0056L14.6858 10.0354L14.7297 10.0711L14.7642 10.1002L14.8079 10.1376L14.8429 10.1683C14.8624 10.1856 14.8745 10.1965 14.8861 10.2073L14.9168 10.2352L14.9601 10.2769L14.9922 10.3076L15.0266 10.3421L15.062 10.3774L15.0844 10.4005L15.1065 10.4247L15.1388 10.4585L15.1699 10.4928L15.2004 10.5266L15.212 10.5403C15.2291 10.5599 15.2462 10.5793 15.2655 10.6022L15.2897 10.6318L15.2905 10.6323L15.2947 10.6377C15.3042 10.6491 15.314 10.6611 15.3297 10.6803L15.3599 10.7186L15.3884 10.7555L15.4217 10.7999L15.4274 10.8075L15.4499 10.8377L15.4797 10.8791L15.5063 10.917L15.5358 10.9602L15.5631 11.0014L15.5909 11.0439L15.6149 11.082L15.6299 11.1057L15.6439 11.1286L15.6665 11.1667L15.6686 11.1702C15.676 11.1825 15.6834 11.1948 15.6943 11.2139L15.7155 11.2511L15.7157 11.2515L15.7197 11.2584L15.7421 11.2986L15.7618 11.336L15.7761 11.3624L15.7903 11.3894L15.7963 11.4017L15.7965 11.4022L15.797 11.4024L15.8186 11.4459L15.8402 11.4904C15.8768 11.566 15.9108 11.6422 15.9422 11.7186L15.9503 11.7379L15.9634 11.7706L15.9764 11.8039L15.9974 11.8592L16.009 11.8914L16.0195 11.9207L16.0292 11.9482L16.0387 11.9763L16.0513 12.0144L16.0608 12.0437L16.0701 12.0728L16.0896 12.1371L16.0991 12.1702L16.1055 12.1924L16.1257 12.2671L16.1293 12.2813L16.139 12.3196L16.1478 12.3575L16.1526 12.3771L16.1616 12.4159L16.1699 12.4554L16.1711 12.4617L16.1801 12.5048L16.1887 12.5483L16.1896 12.553V12.554C16.1949 12.5816 16.1996 12.6081 16.2034 12.6308C16.2072 12.6535 16.2115 12.6793 16.2156 12.7081C16.2353 12.8408 16.2491 12.9744 16.2564 13.108L16.2567 13.1137L16.2588 13.1583L16.2602 13.2023L16.2605 13.2085L16.2614 13.2517L16.2621 13.2941V13.3305C16.2624 13.3518 16.2621 13.3716 16.2619 13.3891L16.261 13.4428L16.2595 13.4835L16.259 13.5017L16.2548 13.5842L16.2545 13.5906L16.2514 13.6369L16.2481 13.6819V13.6835C16.2446 13.7232 16.2407 13.763 16.2362 13.8029C16.232 13.841 16.2267 13.8807 16.221 13.9223C16.192 14.1266 16.1483 14.33 16.0889 14.5305L16.0877 14.5341L16.0741 14.578L16.0606 14.6218L16.0582 14.6291L16.0435 14.6733L16.028 14.7183L16.0273 14.7206L16.0121 14.7634L15.9957 14.8072L15.9916 14.8183L15.9757 14.8601L15.9591 14.902L15.9572 14.9077L15.9394 14.9502L15.9218 14.9928L15.9203 14.9961L15.9039 15.0351L15.9408 15.0562L19.9043 17.3323C19.9727 17.3715 20.0189 17.4165 20.0469 17.4633C20.0707 17.5028 20.0811 17.5444 20.0802 17.5851C20.0795 17.626 20.0666 17.6669 20.0448 17.705C20.0158 17.7546 19.9711 17.7988 19.9147 17.8326L12.9915 21.804L12.9185 21.8456L12.9915 21.8877L15.4193 23.2818C15.989 23.6093 16.661 23.5999 17.2034 23.3161L22.8866 20.0516C23.0356 19.9653 23.1364 19.8806 23.2003 19.774C23.2645 19.6671 23.2904 19.5413 23.289 19.3741V12.889C23.2833 12.26 22.9529 11.65 22.3658 11.3128L12.4781 5.63378V9.11184ZM1.63343 11.3137C1.06392 11.641 0.735908 12.2248 0.711426 12.8337L0.712139 19.3623C0.712852 19.5337 0.736146 19.6631 0.796757 19.7714C0.857606 19.8801 0.954346 19.965 1.10053 20.0478L6.71503 23.2724L6.74593 23.2903C7.29643 23.5999 7.99286 23.6202 8.57996 23.283L18.3949 17.6458L18.4674 17.6038L15.4775 15.8866L15.4397 15.8651L15.4141 15.8998L15.4138 15.9003L15.4122 15.9022L15.382 15.9415L15.352 15.9795L15.3475 15.985L15.3164 16.0237L15.2848 16.0618L15.2836 16.0632L15.2833 16.0637L15.2505 16.1022L15.2168 16.1408L15.2158 16.142L15.1821 16.18L15.1467 16.2186L15.1457 16.2191L15.145 16.22L15.1352 16.2306L15.1255 16.241C15.1089 16.2588 15.0917 16.2763 15.0744 16.2942L15.0737 16.2947L15.0376 16.3316L14.9998 16.3687L14.9986 16.3699L14.9981 16.3702L14.9769 16.391L14.9558 16.4113C14.9197 16.4456 14.8828 16.4792 14.845 16.5125L14.8446 16.513L14.8046 16.5477L14.7656 16.5808L14.7647 16.5815L14.763 16.5827L14.7623 16.5834L14.7219 16.617L14.6815 16.6499C14.6249 16.695 14.5674 16.7381 14.5101 16.7792L14.5087 16.7804L14.4661 16.8104L14.4212 16.8414L14.3758 16.8719L14.3326 16.9001L14.3311 16.9012L14.3304 16.9015L14.2841 16.931L14.2387 16.9589L14.2377 16.9594L14.1902 16.9883L14.1431 17.0157L14.097 17.0419L14.0507 17.0672L14.0193 17.0838L14.0105 17.0885L13.957 17.1164L13.9242 17.1327L13.9171 17.136L13.9118 17.1386L13.905 17.1422L13.8636 17.1625L13.769 17.2067L13.7241 17.2268L13.6299 17.2666L13.5765 17.2878L13.532 17.3051L13.4788 17.3252L13.4365 17.3403L13.3818 17.3593L13.3378 17.3742C13.3129 17.3824 13.2974 17.3869 13.282 17.3919L13.2425 17.4042L13.1848 17.421L13.142 17.4328L13.0944 17.4456L13.0792 17.4496L13.0462 17.4581L13.0148 17.4657L12.9827 17.473L12.9371 17.4839L12.8914 17.4936L12.847 17.5028L12.8294 17.5061C12.804 17.5113 12.7783 17.516 12.7486 17.521L12.7108 17.5271L12.7101 17.5274L12.7032 17.5286C12.6887 17.5309 12.6732 17.5338 12.6488 17.5373L12.6 17.5444L12.5537 17.5505L12.4985 17.5572L12.489 17.5581L12.4512 17.5621L12.4004 17.5673L12.3543 17.5714L12.3017 17.5749L12.2523 17.578L12.2014 17.5806L12.156 17.5825L12.1011 17.5839L12.0567 17.5846L12.0526 17.5844C12.0379 17.5846 12.0236 17.5848 12.0018 17.5848L11.959 17.5844H11.9502L11.9041 17.5834L11.862 17.582L11.8009 17.5796L11.7876 17.5785H11.7869L11.7864 17.5787L11.7374 17.5759L11.688 17.5721C11.6041 17.5659 11.5207 17.5572 11.4384 17.5461L11.4178 17.5432L11.3828 17.5383L11.3472 17.5326L11.3217 17.5288L11.2885 17.5231L11.2547 17.5172L11.2238 17.5115L11.1953 17.5059L11.166 17.5002L11.1266 17.4921L11.0662 17.4789L11.0332 17.4716L11.0004 17.4635L10.9669 17.4553L10.9443 17.4496L10.9065 17.4397L10.8692 17.4295L10.8549 17.4257L10.8169 17.4148L10.7793 17.4039L10.7598 17.3978L10.7216 17.3862L10.6833 17.3739L10.6771 17.372L10.635 17.3578L10.593 17.3434L10.5882 17.342L10.5875 17.3418C10.5606 17.3323 10.5354 17.3231 10.5138 17.3148C10.4919 17.307 10.4677 17.2975 10.4404 17.2867C10.3149 17.2377 10.192 17.1826 10.0719 17.1219L10.0667 17.1192L10.0273 17.0989L9.9878 17.0783L9.98234 17.0753L9.94431 17.0547L9.90699 17.0339L9.89582 17.0273L9.88536 17.0216L9.87538 17.0157C9.8566 17.0053 9.83925 16.9951 9.82427 16.9864L9.81239 16.9793L9.77792 16.9585L9.74346 16.9372L9.69259 16.905L9.65789 16.8826L9.65266 16.879L9.61392 16.8532L9.57612 16.8277L9.57493 16.827C9.54189 16.8043 9.50933 16.7809 9.47701 16.7572C9.44611 16.7345 9.41378 16.7102 9.3805 16.6844C9.21697 16.5574 9.062 16.4179 8.91724 16.2663L8.91486 16.2635L8.88301 16.2299L8.85188 16.1964L8.84641 16.1907L8.81551 16.1557L8.78437 16.1202L8.78247 16.1181L8.75252 16.0836L8.72281 16.0481L8.7152 16.0386L8.68692 16.0041L8.65863 15.9686L8.65507 15.9644L8.62631 15.9275L8.5985 15.8911L8.59636 15.8885L8.57045 15.8549L4.57034 18.1526C4.50213 18.1916 4.43985 18.2091 4.38542 18.21C4.33907 18.2105 4.29747 18.1989 4.2623 18.1776C4.22736 18.1566 4.19812 18.1254 4.17578 18.0873C4.14702 18.0379 4.13085 17.9769 4.12966 17.9114L4.13394 9.87749L1.63343 11.3137Z" fill="#BA0B22"/>
<path fill-rule="evenodd" clip-rule="evenodd" d="M8.63721 13.305C8.63721 15.1618 10.1429 16.6676 11.9996 16.6676C13.8567 16.6676 15.3625 15.1618 15.3625 13.305C15.3625 11.4483 13.8567 9.94238 11.9996 9.94238C10.1429 9.94238 8.63721 11.4483 8.63721 13.305Z" fill="#FFC730"/>
</svg>
