<svg width="24" height="24" viewBox="0 0 24 24" fill="none" xmlns="http://www.w3.org/2000/svg">
<path fill-rule="evenodd" clip-rule="evenodd" d="M8.2185 4.19058L8.2184 4.19048C9.15055 2.82208 10.4788 1.44388 11.922 0.146484C12.7575 1.14823 13.4879 2.40353 13.7497 3.85243C14.7839 3.25818 15.9489 2.76388 17.1771 2.35193C17.9856 2.08078 18.8198 1.84568 19.66 1.64063C19.556 3.51923 19.1998 5.51423 18.3852 7.30538V7.30543L18.3852 7.30538C20.3052 7.34493 22.2396 7.90868 24 8.67568C22.5941 10.4827 21.017 12.1744 19.3445 13.3779L19.3445 13.378L19.3446 13.378C20.5452 14.3697 21.3744 15.7562 21.933 17.1473C20.0408 17.9419 18.1373 18.5705 16.4489 18.7899L16.4487 18.79L16.4489 18.7899C16.6665 19.9955 16.4489 21.278 16.0822 22.4068C15.4803 22.3568 14.8858 22.2879 14.3139 22.1948C13.4383 22.0532 12.6129 21.8534 11.8904 21.5746L11.8897 21.5744L11.8904 21.5747C11.4815 22.4723 10.7724 23.2466 10.0497 23.8538C9.10135 23.2639 8.19725 22.586 7.55545 21.8423L7.55525 21.8421L7.5555 21.8424C6.8938 22.3169 6.07385 22.5954 5.31285 22.7532C4.84225 22.0009 4.4229 21.1763 4.21795 20.3764C3.782 20.4325 3.32405 20.408 2.8792 20.3348C2.60815 20.2908 2.34025 20.2292 2.08405 20.1569C1.97955 19.3812 1.9427 18.5441 2.0764 17.7987V17.7984L2.07635 17.7986C1.4385 17.5541 0.8247 17.1004 0.2963 16.6163C0.4958 15.8828 0.7843 15.1122 1.20305 14.497L1.2031 14.4969C0.7131 13.9275 0.3153 13.1559 0 12.3805C0.48895 11.7602 1.09175 11.143 1.75915 10.7575L1.7538 10.7363C1.52875 9.83573 1.47335 8.74998 1.50325 7.67743C1.7984 7.53363 2.1084 7.40423 2.42825 7.29623C2.95495 7.12043 3.5008 7.00978 4.0303 7.01913H4.0304C4.25175 5.79453 4.7592 4.41908 5.3665 3.07558C6.3615 3.20548 7.4111 3.52263 8.21835 4.19048L8.2185 4.19058Z" fill="#7DCDF1"/>
<path fill-rule="evenodd" clip-rule="evenodd" d="M9.85133 7.23239V7.23234C10.452 6.51649 11.1724 5.78569 12.0127 5.06854C12.5325 4.61929 13.1183 4.21774 13.7498 3.85254C13.8517 4.41839 13.8808 5.00604 13.8155 5.60729C13.7084 6.60039 13.4937 7.55844 13.1953 8.45099C14.1163 8.06334 15.1448 7.73599 16.2596 7.49699C16.9546 7.34929 17.6665 7.28989 18.3852 7.30554C18.0772 7.98109 17.706 8.62074 17.2653 9.20684C16.5547 10.1525 15.8028 10.9768 15.0465 11.6755C15.9506 11.8157 16.8823 12.0686 17.8032 12.4455C18.3685 12.6774 18.8813 12.9955 19.3447 13.3781C18.7256 13.8222 18.0943 14.1998 17.4506 14.4937C16.4214 14.9634 15.4406 15.3063 14.5302 15.5399V15.5399L14.5302 15.5399C15.0753 16.0823 15.5657 16.7149 15.9659 17.425C16.2059 17.8485 16.362 18.3104 16.449 18.79C15.8205 18.8721 15.2178 18.8983 14.6498 18.8554C13.7306 18.7878 12.8973 18.6437 12.1558 18.4415C12.2646 19.0829 12.2874 19.755 12.215 20.4289C12.172 20.8247 12.0566 21.2091 11.8905 21.5748C11.4401 21.4006 11.0258 21.1973 10.6615 20.9542C10.0606 20.5541 9.54148 20.122 9.10568 19.6739L9.10233 19.6711L9.10563 19.6745C8.89453 20.1961 8.61483 20.695 8.26848 21.1534C8.07023 21.419 7.82658 21.6466 7.55553 21.8424C7.30548 21.5542 7.09233 21.2522 6.92853 20.9371C6.65188 20.4109 6.44638 19.8813 6.30363 19.3619V19.3619C5.92263 19.6756 5.50083 19.941 5.04773 20.1461C4.78718 20.2662 4.50753 20.3382 4.21808 20.3765C4.13653 20.0578 4.08838 19.7408 4.08393 19.4298C4.07508 18.9017 4.12358 18.3897 4.22108 17.9053V17.9052L4.22103 17.9053C3.78098 17.9909 3.32538 18.0184 2.86773 17.9845C2.60178 17.965 2.33658 17.8995 2.07648 17.7987C2.13198 17.497 2.21463 17.207 2.33218 16.9419C2.53608 16.4852 2.78518 16.0638 3.07148 15.6861V15.686C2.65243 15.5423 2.23938 15.3395 1.84513 15.0764C1.61373 14.9218 1.40033 14.7253 1.20312 14.4971C1.37543 14.2449 1.56843 14.0185 1.78653 13.8308C2.16433 13.5067 2.57083 13.2403 2.99303 13.0328L2.99313 13.0327L2.99303 13.0327C2.67173 12.6586 2.37723 12.2253 2.12138 11.7339C1.96933 11.4427 1.84993 11.1132 1.75923 10.7569C2.03573 10.5989 2.32158 10.4796 2.61308 10.4175C3.11873 10.3093 3.62563 10.2783 4.11823 10.3189C3.99118 9.72624 3.91823 9.07274 3.90743 8.36569C3.89918 7.93974 3.94478 7.48809 4.03043 7.01919C4.37808 7.02639 4.71498 7.08704 5.02983 7.21634C5.56903 7.43579 6.06258 7.74139 6.49988 8.11299L6.50008 8.11309L6.49993 8.11294C6.69333 7.36534 6.97138 6.56574 7.34603 5.72919C7.57568 5.21494 7.87123 4.70149 8.21843 4.19059C8.54413 4.45844 8.82553 4.78124 9.04188 5.16459C9.40763 5.81154 9.67618 6.51314 9.85128 7.23234L9.85133 7.23239Z" fill="#00AAE7"/>
<path fill-rule="evenodd" clip-rule="evenodd" d="M7.99601 10.1205C7.98456 10.1465 8.00751 10.1468 7.99601 10.1205L7.99641 10.1196L7.99601 10.1188C8.39931 9.20423 9.01981 8.22193 9.85147 7.23193C10.1025 8.27723 10.1506 9.34343 10.0107 10.3332C9.99201 10.3488 9.99081 10.3675 10.0026 10.3892C10.0054 10.3706 10.0081 10.3519 10.0107 10.3332C10.8545 9.63123 11.9301 8.98188 13.1954 8.45053C12.7753 9.70583 12.1981 10.8159 11.5336 11.7135L11.5334 11.7135H11.5336C11.7361 11.6733 11.9428 11.6405 12.1558 11.614C13.0504 11.5036 14.0281 11.517 15.0467 11.6755C14.0049 12.6357 12.9492 13.3589 11.9592 13.8323C12.8603 14.1853 13.7471 14.7621 14.5304 15.5395C13.5185 15.7985 12.5819 15.9211 11.7512 15.9239C11.5525 15.9243 11.3595 15.9177 11.1733 15.9049L11.1733 15.9049L11.1733 15.9049C11.6532 16.6197 11.9954 17.4898 12.1558 18.4409C11.1195 18.1564 10.2457 17.7517 9.56357 17.2668V17.2663L9.56352 17.2667C9.57986 18.0554 9.42486 18.8832 9.10576 19.6735C8.47971 19.0316 8.01106 18.3445 7.71191 17.6571C7.72076 17.6405 7.69991 17.6294 7.71191 17.6571C7.36896 18.298 6.88721 18.8824 6.30376 19.3615C6.09531 18.5951 6.02391 17.8388 6.08606 17.1366L6.08611 17.1365H6.08606V17.1366C5.53321 17.5125 4.89501 17.775 4.22111 17.9049C4.36871 17.1763 4.63026 16.5017 4.98756 15.9264C5.00926 15.9245 5.00311 15.9013 4.98761 15.9264C4.86066 15.9378 4.73426 15.9439 4.60601 15.9439C4.09671 15.9452 3.57841 15.86 3.07156 15.6857C3.50606 15.1088 4.02306 14.6316 4.58666 14.2876C4.01311 14.0107 3.47106 13.5854 2.99316 13.0323C3.51031 12.7778 4.04946 12.6144 4.58146 12.5487C4.71391 12.5317 4.84721 12.5223 4.98031 12.5185C4.99501 12.5414 5.00841 12.5176 4.98026 12.5185C4.59696 11.9229 4.30121 11.1782 4.11946 10.3186C4.86736 10.3815 5.57196 10.6111 6.17136 10.9839V10.984C6.17276 11.0096 6.19356 10.9978 6.17136 10.984V10.9839C6.12286 10.1413 6.22836 9.16808 6.50001 8.11258C7.15261 8.66813 7.66416 9.36138 7.99601 10.1188L7.99561 10.1197L7.99601 10.1205Z" fill="#006FBA"/>
<path fill-rule="evenodd" clip-rule="evenodd" d="M10.0119 10.3219C10.0114 10.3257 10.0109 10.3295 10.0104 10.3333C9.33287 10.8975 8.79587 11.5037 8.42127 12.1221C8.42552 11.4512 8.27937 10.7683 7.99572 10.1206C7.66582 10.8702 7.47422 11.5874 7.43017 12.2435C7.12762 11.737 6.69378 11.309 6.17108 10.9841C6.21038 11.6903 6.35883 12.3185 6.61173 12.8388C6.12053 12.6048 5.56343 12.5006 4.97998 12.5186C4.97338 12.5083 4.96033 12.5097 4.94238 12.5198C4.95493 12.5194 4.96743 12.5189 4.97998 12.5186C5.30713 13.0289 5.70438 13.4385 6.15598 13.7188C5.62103 13.7821 5.08618 13.982 4.58643 14.2877C5.08618 14.5304 5.61533 14.6595 6.14328 14.6569C5.69293 14.9818 5.30168 15.4178 4.98733 15.9265C5.54298 15.8764 6.07973 15.7142 6.56023 15.4411C6.29888 15.9494 6.14108 16.5262 6.08583 17.1366C6.57998 16.8021 7.00098 16.3819 7.31678 15.8949C7.32102 16.4754 7.45747 17.0712 7.71162 17.6572C8.01457 17.0902 8.20157 16.488 8.25242 15.8917C8.55497 16.4003 8.99997 16.8659 9.56322 17.2668C9.54952 16.5834 9.40742 15.9413 9.13722 15.3905C9.69917 15.676 10.387 15.8507 11.173 15.905C10.7677 15.3023 10.2712 14.8192 9.71627 14.4932C10.4054 14.4346 11.1656 14.2121 11.9589 13.8324C11.2217 13.5439 10.4803 13.4107 9.78362 13.4379C10.4008 13.0238 10.9954 12.4399 11.5333 11.7136C10.684 11.8816 9.92672 12.1672 9.29792 12.5556C9.65232 11.9101 9.89467 11.1537 10.0104 10.3333C10.0134 10.3308 10.0138 10.327 10.0119 10.3219Z" fill="white"/>
</svg>
